<svg width="20" height="24" viewBox="0 0 20 24" fill="none" xmlns="http://www.w3.org/2000/svg">
<path fill-rule="evenodd" clip-rule="evenodd" d="M20 9.81818C20 17.4545 10 24 10 24C10 24 0 17.4545 0 9.81818C8.22968e-08 4.39575 4.47715 0 10 0C15.5228 0 20 4.39575 20 9.81818Z" fill="#A3FBFE"/>
<rect width="20" height="20" rx="10" fill="#A3FBFE"/>
<path d="M7.64008 6.01562V14.5H6.3393V7.30469H6.29242L4.26508 8.62891V7.39844L6.37445 6.01562H7.64008ZM12.6295 14.6172C10.6607 14.6172 9.51227 13.0352 9.51227 10.2578C9.51227 7.50391 10.6841 5.89844 12.6295 5.89844C14.5748 5.89844 15.7466 7.50391 15.7466 10.2578C15.7466 13.0352 14.5865 14.6172 12.6295 14.6172ZM12.6295 13.5039C13.7779 13.5039 14.4576 12.3789 14.4576 10.2578C14.4576 8.14844 13.7662 6.98828 12.6295 6.98828C11.4927 6.98828 10.8013 8.14844 10.8013 10.2578C10.8013 12.3789 11.481 13.5039 12.6295 13.5039Z" fill="#27292F"/>
</svg>
