<svg width="24" height="24" viewBox="0 0 24 24" fill="none" xmlns="http://www.w3.org/2000/svg">
<path d="M8.7998 3.25C10.291 3.25 11.5 4.45903 11.5 5.9502V9.5498C11.5 11.041 10.291 12.25 8.7998 12.25H7.70117V15.6895C7.70137 17.3797 9.07146 18.75 10.7617 18.75C12.452 18.75 13.8221 17.3797 13.8223 15.6895V7.13867C13.8225 5.59851 15.0712 4.34981 16.6113 4.34961C18.1517 4.34961 19.4011 5.59838 19.4014 7.13867V15.4424C20.5812 15.7518 21.452 16.8227 21.4521 18.0996C21.4521 19.6184 20.2209 20.8496 18.7021 20.8496C17.2784 20.8494 16.1075 19.7676 15.9668 18.3809L15.9521 18.0996L15.9668 17.8184C16.0838 16.6682 16.9102 15.7297 18.001 15.4424V7.13867C18.0008 6.37158 17.3785 5.75 16.6113 5.75C15.8444 5.7502 15.2229 6.3717 15.2227 7.13867V15.6895C15.2225 18.1529 13.2252 20.1494 10.7617 20.1494C8.29826 20.1494 6.30098 18.1529 6.30078 15.6895V12.25H5.2002L4.92383 12.2363C3.56238 12.098 2.5 10.9477 2.5 9.5498V5.9502C2.5 4.55225 3.56238 3.40198 4.92383 3.26367L5.2002 3.25H8.7998ZM18.7021 16.75C17.9569 16.7502 17.3527 17.3543 17.3525 18.0996C17.3525 18.7986 17.8837 19.3742 18.5645 19.4434L18.7021 19.4502C19.4011 19.4502 19.9767 18.9189 20.0459 18.2383L20.0527 18.0996C20.0525 17.3542 19.4476 16.75 18.7021 16.75ZM5.2002 4.65039C4.48223 4.65039 3.90039 5.23223 3.90039 5.9502V9.5498C3.90039 10.2678 4.48223 10.8496 5.2002 10.8496H8.7998C9.51778 10.8496 10.0996 10.2678 10.0996 9.5498V5.9502C10.0996 5.23223 9.51777 4.65039 8.7998 4.65039H5.2002ZM7.23438 7.58691C7.34227 7.44331 7.55792 7.44358 7.66602 7.58691L9.15137 9.56738C9.2846 9.74534 9.1579 9.99895 8.93555 9.99902H5.96582C5.96369 9.99898 5.96108 9.99809 5.95898 9.99805H5.06738C4.84507 9.99792 4.71737 9.74435 4.85059 9.56641L5.66113 8.48633C5.76908 8.34279 5.98472 8.34294 6.09277 8.48633L6.32617 8.79688L7.23438 7.58691Z" fill="white"/>
</svg>
